<?xml version="1.0" encoding="UTF-8"?>
<svg version="1.1" xmlns="http://www.w3.org/2000/svg" width="202" height="60">
<path d="M0 0 C1.50412594 9.53217164 0.9257251 17.16756932 -4.6875 25.25 C-9.82218456 31.54125955 -16.86589626 37.00423705 -25.0559082 38.33374023 C-36.71301309 39.25924452 -46.01837442 37.76431651 -55.28515625 30.11328125 C-57.01149542 28.47617632 -58.5951401 26.91931564 -60 25 C-60 24.34 -60 23.68 -60 23 C-57.60169065 24.06591527 -55.81757848 25.1563613 -53.8125 26.875 C-45.87089202 32.87532603 -36.82661661 35.00214787 -27 34 C-18.19034533 31.80355493 -11.96918358 28.57118228 -7.1875 20.6875 C-4.94851163 16.41045812 -4.26162902 12.79653201 -4 8 C-4.1959375 8.61746094 -4.391875 9.23492187 -4.59375 9.87109375 C-7.02623813 16.75964851 -10.40867423 22.20587498 -16 27 C-18.25 27.74609375 -18.25 27.74609375 -20 28 C-20 27.34 -20 26.68 -20 26 C-18.8357041 24.86994809 -17.67033938 23.74097929 -16.5 22.6171875 C-12.0428406 17.81181252 -8.73431089 11.92434026 -6 6 C-11.97674416 7.52893455 -14.93362638 10.29781911 -18.625 15.125 C-20.3655595 18.76435169 -21.19169114 22.44785732 -22.05859375 26.37890625 C-23.38869851 30.08222697 -25.49254759 32.24627379 -29 34 C-34.26883876 34.59873168 -36.8846468 33.25400021 -41 30 C-42.63734618 26.72530764 -42.3096807 23.15803049 -42.375 19.5625 C-42.41238281 18.78583984 -42.44976562 18.00917969 -42.48828125 17.20898438 C-42.5234375 14.94140625 -42.5234375 14.94140625 -42 11 C-38.26756963 7.64471416 -34.93951514 7.61037723 -30.15234375 7.76171875 C-27.51855643 8.05329956 -25.37695079 8.84753901 -23 10 C-20.33000751 10 -19.9352911 9.09989634 -18.0625 7.25 C-13.1648143 2.89879292 -6.60132948 0 0 0 Z M-36 11 C-36 11.66 -36 12.32 -36 13 C-33.36 13 -30.72 13 -28 13 C-28 12.34 -28 11.68 -28 11 C-32.10223585 9.98459888 -32.10223585 9.98459888 -36 11 Z M-32.125 15.5 C-33.22070312 15.5928125 -34.31640625 15.685625 -35.4453125 15.78125 C-36.28835937 15.8534375 -37.13140625 15.925625 -38 16 C-38.08114106 17.77007714 -38.13925505 19.54122098 -38.1875 21.3125 C-38.22230469 22.29863281 -38.25710937 23.28476562 -38.29296875 24.30078125 C-38.22443097 27.00781261 -38.22443097 27.00781261 -36.67578125 28.83203125 C-34.07386354 30.64548905 -32.07797388 30.38474673 -29 30 C-26.49493634 28.23493093 -26.02282201 27.09116599 -25.26953125 24.08203125 C-25.11871094 23.00308594 -24.96789063 21.92414062 -24.8125 20.8125 C-24.57466797 19.18248047 -24.57466797 19.18248047 -24.33203125 17.51953125 C-24.22246094 16.68808594 -24.11289062 15.85664062 -24 15 C-26.72529889 15 -29.40967841 15.2689088 -32.125 15.5 Z " fill="#42725C" transform="translate(85,22)"/>
<path d="M0 0 C3.5702508 2.77631381 6.95767955 5.64697449 10 9 C10 9.66 10 10.32 10 11 C7.04346785 9.61453987 4.51466804 7.97650284 1.875 6.0625 C-6.24318143 0.6193259 -14.89180736 -1.33070689 -24.50390625 0.46875 C-31.50951076 2.26560734 -37.35350364 5.16157016 -41.53515625 11.2265625 C-44.80000404 17.2232217 -46.14230461 23.26645115 -47 30 C-45.07613155 29.11973944 -43.16114042 28.22006309 -41.25 27.3125 C-40.18265625 26.81363281 -39.1153125 26.31476562 -38.015625 25.80078125 C-33.51277771 23.11190482 -31.51762305 20.56904488 -29.875 15.58984375 C-29.29107663 13.15248503 -28.70774445 10.7149846 -28.125 8.27734375 C-26.71401134 4.16685942 -24.88512736 1.94256368 -21 0 C-16.36445612 -0.41204834 -13.69583902 0.12545854 -10 3 C-7.3382274 6.74483869 -7.77400037 10.85263143 -7.875 15.25 C-7.88402344 15.99507812 -7.89304688 16.74015625 -7.90234375 17.5078125 C-7.92581642 19.33868059 -7.96168475 21.16938238 -8 23 C-9.98 23.99 -9.98 23.99 -12 25 C-12 24.01 -12 23.02 -12 22 C-15.96 22 -19.92 22 -24 22 C-24 22.99 -24 23.98 -24 25 C-25.32 24.34 -26.64 23.68 -28 23 C-28.46148437 23.45890625 -28.92296875 23.9178125 -29.3984375 24.390625 C-35.36942966 30.00760577 -41.60784806 34 -50 34 C-50.61631703 22.96107726 -50.7255973 14.46947412 -43.015625 5.7578125 C-31.86768094 -5.03434612 -13.66107164 -8.68715797 0 0 Z M-22.61328125 5.13671875 C-24.53800428 7.72289589 -24.74397601 10.01459758 -25.1875 13.1875 C-25.455625 15.105625 -25.72375 17.02375 -26 19 C-21.38 19 -16.76 19 -12 19 C-11.938125 17.081875 -11.87625 15.16375 -11.8125 13.1875 C-11.77769531 12.10855469 -11.74289063 11.02960937 -11.70703125 9.91796875 C-11.75491538 7.01932849 -11.75491538 7.01932849 -13.32421875 5.13671875 C-16.28926404 3.12546425 -19.66628181 3.06026152 -22.61328125 5.13671875 Z " fill="#35AB69" transform="translate(71,4)"/>
<path d="M0 0 C2.64 0 5.28 0 8 0 C8 0.99 8 1.98 8 3 C8.66 3 9.32 3 10 3 C10 2.01 10 1.02 10 0 C29 0 29 0 30.875 0.5625 C33.2667793 1.05492515 34.70012027 0.73924706 37 0 C37.495 0.99 37.495 0.99 38 2 C38.33 1.34 38.66 0.68 39 0 C48.57 0 58.14 0 68 0 C68.495 1.485 68.495 1.485 69 3 C68.01 3 67.02 3 66 3 C66.495 3.99 66.495 3.99 67 5 C67.99 4.67 68.98 4.34 70 4 C70.73323796 1.98491642 70.73323796 1.98491642 71 0 C73.31 0 75.62 0 78 0 C78 1.98 78 3.96 78 6 C78.66 6 79.32 6 80 6 C80 6.66 80 7.32 80 8 C77.69 8 75.38 8 73 8 C73 7.34 73 6.68 73 6 C72.34 6 71.68 6 71 6 C71 6.66 71 7.32 71 8 C67.7 8 64.4 8 61 8 C61 6.02 61 4.04 61 2 C60.34 2 59.68 2 59 2 C59 3.98 59 5.96 59 8 C58.34 8 57.68 8 57 8 C56.505 7.01 56.505 7.01 56 6 C55.34 6.66 54.68 7.32 54 8 C52.12060547 8.22705078 52.12060547 8.22705078 49.8671875 8.1953125 C48.65869141 8.18564453 48.65869141 8.18564453 47.42578125 8.17578125 C46.58402344 8.15902344 45.74226563 8.14226563 44.875 8.125 C43.60076172 8.11146484 43.60076172 8.11146484 42.30078125 8.09765625 C40.20040116 8.07405647 38.10016556 8.03818483 36 8 C36 7.34 36 6.68 36 6 C35.34 6 34.68 6 34 6 C34 6.66 34 7.32 34 8 C28.06 8 22.12 8 16 8 C16 7.34 16 6.68 16 6 C15.34 6 14.68 6 14 6 C14 6.66 14 7.32 14 8 C12.68 8 11.36 8 10 8 C10 7.01 10 6.02 10 5 C9.34 5 8.68 5 8 5 C8 5.99 8 6.98 8 8 C7.34 8 6.68 8 6 8 C5.67 7.01 5.34 6.02 5 5 C4.34 5 3.68 5 3 5 C3 5.99 3 6.98 3 8 C2.01 8 1.02 8 0 8 C0 5.36 0 2.72 0 0 Z M41 2 C41.33 3.32 41.66 4.64 42 6 C42.66 5.01 43.32 4.02 44 3 C43.01 2.67 42.02 2.34 41 2 Z " fill="#69C291" transform="translate(98,37)"/>
<path d="M0 0 C3.6875 1.0625 3.6875 1.0625 5.0390625 2.9140625 C6.02285237 4.91703036 6.86441044 6.9883143 7.6875 9.0625 C8.0175 6.0925 8.3475 3.1225 8.6875 0.0625 C10.3375 0.0625 11.9875 0.0625 13.6875 0.0625 C13.6875 6.6625 13.6875 13.2625 13.6875 20.0625 C11.3775 20.0625 9.0675 20.0625 6.6875 20.0625 C5.0375 16.7625 3.3875 13.4625 1.6875 10.0625 C1.3575 13.3625 1.0275 16.6625 0.6875 20.0625 C-0.9625 20.0625 -2.6125 20.0625 -4.3125 20.0625 C-4.34138514 16.91668577 -4.35925923 13.77090531 -4.375 10.625 C-4.38337891 9.72716797 -4.39175781 8.82933594 -4.40039062 7.90429688 C-4.40361328 7.05029297 -4.40683594 6.19628906 -4.41015625 5.31640625 C-4.41801147 4.13026733 -4.41801147 4.13026733 -4.42602539 2.92016602 C-4.22306878 -0.40090254 -3.40634196 0.0642706 0 0 Z " fill="#638A78" transform="translate(128.3125,14.9375)"/>
<path d="M0 0 C3.5702508 2.77631381 6.95767955 5.64697449 10 9 C10 9.66 10 10.32 10 11 C7.04346785 9.61453987 4.51466804 7.97650284 1.875 6.0625 C-6.24318143 0.6193259 -14.89180736 -1.33070689 -24.50390625 0.46875 C-31.6204046 2.29405034 -37.6680902 5.20426361 -41.60546875 11.61328125 C-42.83388251 14.04602223 -43.96411392 16.48000791 -45 19 C-45.66 18.34 -46.32 17.68 -47 17 C-48.4807848 19.9615696 -48.35314037 22.83506295 -48.5625 26.125 C-48.64628906 27.40632813 -48.73007812 28.68765625 -48.81640625 30.0078125 C-48.87699219 30.99523438 -48.93757813 31.98265625 -49 33 C-48.01 33.33 -47.02 33.66 -46 34 C-47.32 34 -48.64 34 -50 34 C-50.61631703 22.96107726 -50.7255973 14.46947412 -43.015625 5.7578125 C-31.86768094 -5.03434612 -13.66107164 -8.68715797 0 0 Z " fill="#40B072" transform="translate(71,4)"/>
<path d="M0 0 C2.64 0 5.28 0 8 0 C8 0.99 8 1.98 8 3 C8.66 3 9.32 3 10 3 C10 2.01 10 1.02 10 0 C29 0 29 0 30.875 0.5625 C33.2667793 1.05492515 34.70012027 0.73924706 37 0 C37.495 3.96 37.495 3.96 38 8 C37.34 8 36.68 8 36 8 C36 7.34 36 6.68 36 6 C35.34 6 34.68 6 34 6 C34 6.66 34 7.32 34 8 C28.06 8 22.12 8 16 8 C16 7.34 16 6.68 16 6 C15.34 6 14.68 6 14 6 C14 6.66 14 7.32 14 8 C12.68 8 11.36 8 10 8 C10 7.01 10 6.02 10 5 C9.34 5 8.68 5 8 5 C8 5.99 8 6.98 8 8 C7.34 8 6.68 8 6 8 C5.67 7.01 5.34 6.02 5 5 C4.34 5 3.68 5 3 5 C3 5.99 3 6.98 3 8 C2.01 8 1.02 8 0 8 C0 5.36 0 2.72 0 0 Z " fill="#45B377" transform="translate(98,37)"/>
<path d="M0 0 C1.65 0 3.3 0 5 0 C5 2.64 5 5.28 5 8 C7.31 8 9.62 8 12 8 C12 5.36 12 2.72 12 0 C13.65 0 15.3 0 17 0 C17 6.6 17 13.2 17 20 C15.35 20 13.7 20 12 20 C12 17.36 12 14.72 12 12 C9.69 12 7.38 12 5 12 C5 14.64 5 17.28 5 20 C3.35 20 1.7 20 0 20 C0 13.4 0 6.8 0 0 Z " fill="#265D43" transform="translate(99,15)"/>
<path d="M0 0 C2.4375 1.25 2.4375 1.25 4 3 C4 4.32 4 5.64 4 7 C2.35 7 0.7 7 -1 7 C-1.33 6.34 -1.66 5.68 -2 5 C-3.32 5.33 -4.64 5.66 -6 6 C-1.05 7.98 -1.05 7.98 4 10 C4.48137536 16.3782235 4.48137536 16.3782235 2.5 18.9375 C-1.05569908 20.44867211 -4.19346217 20.5772209 -8 20 C-10.5 18.75 -10.5 18.75 -12 17 C-12 15.68 -12 14.36 -12 13 C-10.35 13 -8.7 13 -7 13 C-6.67 13.66 -6.34 14.32 -6 15 C-3.47266765 15.65555119 -3.47266765 15.65555119 -1 16 C-1 15.01 -1 14.02 -1 13 C-1.62648437 12.87882812 -2.25296875 12.75765625 -2.8984375 12.6328125 C-4.12433594 12.38144531 -4.12433594 12.38144531 -5.375 12.125 C-6.18710938 11.96257813 -6.99921875 11.80015625 -7.8359375 11.6328125 C-10 11 -10 11 -12 9 C-12.4375 6.625 -12.4375 6.625 -12 4 C-8.33721513 -0.10675879 -5.3763993 -0.684269 0 0 Z " fill="#477660" transform="translate(174,15)"/>
<path d="M0 0 C1.65 0.33 3.3 0.66 5 1 C5.33 5.62 5.66 10.24 6 15 C7.65 14.67 9.3 14.34 11 14 C11.33 9.38 11.66 4.76 12 0 C13.65 0 15.3 0 17 0 C17.13572155 2.39774745 17.23436868 4.78775245 17.3125 7.1875 C17.35439453 7.86103516 17.39628906 8.53457031 17.43945312 9.22851562 C17.53471495 13.1342506 17.13408316 14.82499835 14.734375 17.95703125 C10.66749967 20.9955681 8.96634563 20.63064706 4 20 C0.76386646 18.25746655 0.17604685 17.52814056 -1 14 C-1.09449363 11.79329586 -1.12989739 9.58372095 -1.125 7.375 C-1.12886719 5.62316406 -1.12886719 5.62316406 -1.1328125 3.8359375 C-1 1 -1 1 0 0 Z " fill="#225A40" transform="translate(144,15)"/>
<path d="M0 0 C0.59329102 0.15847412 1.18658203 0.31694824 1.79785156 0.48022461 C4.77063345 1.18189342 7.70493251 1.34934528 10.75 1.5625 C11.92046875 1.64628906 13.0909375 1.73007812 14.296875 1.81640625 C15.18890625 1.87699219 16.0809375 1.93757813 17 2 C16.67 2.99 16.34 3.98 16 5 C12.04 5 8.08 5 4 5 C4.12375 6.77375 4.2475 8.5475 4.375 10.375 C4.44460937 11.37273438 4.51421875 12.37046875 4.5859375 13.3984375 C4.76363964 16.15508879 4.76363964 16.15508879 7 18 C9.68839385 18.26991906 12.29141936 18.08737357 15 18 C15.28875 16.948125 15.5775 15.89625 15.875 14.8125 C16.77225193 11.77181289 17.76423419 8.91287656 19 6 C20.55091904 10.84381236 19.6344504 15.26656691 18 20 C15.31534448 22.53550799 13.67576757 22.89935377 10.0625 23.4375 C6.1875574 22.88393677 4.04574652 21.40826469 1 19 C-0.65497356 15.69005287 -0.10084335 12.00877 -0.0625 8.375 C-0.05798828 7.57320312 -0.05347656 6.77140625 -0.04882812 5.9453125 C-0.03703168 3.96350994 -0.01909605 1.98174567 0 0 Z " fill="#719584" transform="translate(43,33)"/>
<path d="M0 0 C2.39830935 1.06591527 4.18242152 2.1563613 6.1875 3.875 C14.12671536 9.87351827 23.17528617 12.00622958 33 11 C40.20531257 9.13533402 46.65322017 5.82373896 53 2 C52.6169767 4.53342553 52.23640386 5.76417273 50.3984375 7.59765625 C49.73070312 8.08105469 49.06296875 8.56445312 48.375 9.0625 C47.39660156 9.79146484 47.39660156 9.79146484 46.3984375 10.53515625 C37.68861511 15.85467318 28.99299633 16.37604094 19 15 C11.49633068 12.69996223 4.68759419 8.40417798 0 2 C0 1.34 0 0.68 0 0 Z " fill="#4A7863" transform="translate(25,45)"/>
<path d="M0 0 C0.66 0.33 1.32 0.66 2 1 C1.65295981 4.12336172 0.96277214 5.03526849 -1.375 7.25 C-5.60060377 11.676823 -7.06429885 17.01151265 -8 23 C-8.33 23 -8.66 23 -9 23 C-9 20.36 -9 17.72 -9 15 C-9.99 16.485 -9.99 16.485 -11 18 C-10.67 15.69 -10.34 13.38 -10 11 C-11.32 10.34 -12.64 9.68 -14 9 C-14 8.34 -14 7.68 -14 7 C-16.64 7 -19.28 7 -22 7 C-22 7.66 -22 8.32 -22 9 C-24.475 8.01 -24.475 8.01 -27 7 C-26 5 -26 5 -23 4 C-17.89662849 3.58905435 -13.67380733 3.7339116 -9 6 C-6.22957891 6 -5.41835044 4.8163115 -3.375 3 C-2.42753906 2.1646875 -2.42753906 2.1646875 -1.4609375 1.3125 C-0.97882813 0.879375 -0.49671875 0.44625 0 0 Z " fill="#688E7D" transform="translate(71,26)"/>
<path d="M0 0 C1.65 0 3.3 0 5 0 C5 6.6 5 13.2 5 20 C2.69 20 0.38 20 -2 20 C-2.33 17.69 -2.66 15.38 -3 13 C-2.01 12.67 -1.02 12.34 0 12 C0 8.04 0 4.08 0 0 Z " fill="#2B6148" transform="translate(137,15)"/>
<path d="M0 0 C0.33 0 0.66 0 1 0 C1.09038099 5.15171623 0.84681133 9.91913204 0 15 C1.89957501 14.09111244 3.79450786 13.17251969 5.6875 12.25 C6.74324219 11.73953125 7.79898437 11.2290625 8.88671875 10.703125 C11.90003083 9.05468828 14.39287648 7.22500338 17 5 C17.66 5.33 18.32 5.66 19 6 C16.35250593 12.00098657 10.68195869 15.15902066 5 18 C2.6670134 18.04022391 0.33293334 18.04320247 -2 18 C-2.054138 15.75026553 -2.09285491 13.50015617 -2.125 11.25 C-2.14820312 9.99703125 -2.17140625 8.7440625 -2.1953125 7.453125 C-2.01537302 4.27179508 -1.68998582 2.63478104 0 0 Z " fill="#37AB69" transform="translate(24,19)"/>
<path d="M0 0 C2.62697064 -0.22137393 5.00893964 -0.28162025 7.625 -0.1875 C8.33140625 -0.17396484 9.0378125 -0.16042969 9.765625 -0.14648438 C11.51074128 -0.1111104 13.25546608 -0.05730221 15 0 C15.33 2.31 15.66 4.62 16 7 C12.16275828 7.90413673 8.62497726 8.10576898 4.6875 8.0625 C3.61886719 8.05347656 2.55023438 8.04445313 1.44921875 8.03515625 C0.64097656 8.02355469 -0.16726562 8.01195312 -1 8 C-1.625 5.6875 -1.625 5.6875 -2 3 C-1.34 2.01 -0.68 1.02 0 0 Z M2 2 C2.33 3.32 2.66 4.64 3 6 C3.66 5.01 4.32 4.02 5 3 C4.01 2.67 3.02 2.34 2 2 Z " fill="#5BBC87" transform="translate(137,37)"/>
<path d="M0 0 C1.65 0 3.3 0 5 0 C5 6.6 5 13.2 5 20 C3.35 20 1.7 20 0 20 C0 13.4 0 6.8 0 0 Z " fill="#3D6E57" transform="translate(118,15)"/>
<path d="M0 0 C2.4375 1.25 2.4375 1.25 4 3 C4 4.32 4 5.64 4 7 C2.35 7 0.7 7 -1 7 C-1.33 6.34 -1.66 5.68 -2 5 C-3.32 5.33 -4.64 5.66 -6 6 C-5.34 6.66 -4.68 7.32 -4 8 C-6.64738916 9.4606285 -7.89448334 10 -11 10 C-12 9 -12 9 -12.375 6.6875 C-12 4 -12 4 -9.9375 1.6875 C-6.28433812 -0.41112491 -4.15533496 -0.52886081 0 0 Z " fill="#45745E" transform="translate(174,15)"/>
<path d="M0 0 C1.65 0 3.3 0 5 0 C5.0809723 2.43816585 5.14046972 4.87364384 5.1875 7.3125 C5.22520508 8.34793945 5.22520508 8.34793945 5.26367188 9.40429688 C5.33834499 14.55674183 5.33834499 14.55674183 3.48828125 16.98046875 C2.99714844 17.31691406 2.50601563 17.65335938 2 18 C1.34 17.34 0.68 16.68 0 16 C-0.33 16.33 -0.66 16.66 -1 17 C-2.99958364 17.04080783 -5.00045254 17.04254356 -7 17 C-6.67 16.34 -6.34 15.68 -6 15 C-4.35 14.67 -2.7 14.34 -1 14 C-0.67 9.38 -0.34 4.76 0 0 Z " fill="#729685" transform="translate(156,15)"/>
<path d="M0 0 C0.33 0.99 0.66 1.98 1 3 C-0.03433127 3.94558687 -1.07794146 4.88102584 -2.125 5.8125 C-2.70507812 6.33457031 -3.28515625 6.85664062 -3.8828125 7.39453125 C-9.55666428 11.69702771 -13.98868227 12.41509864 -20.875 12.1875 C-21.65875 12.17396484 -22.4425 12.16042969 -23.25 12.14648438 C-25.16696782 12.11141789 -27.08357751 12.05762072 -29 12 C-29 11.67 -29 11.34 -29 11 C-27.90042969 10.78085937 -26.80085938 10.56171875 -25.66796875 10.3359375 C-11.74563554 7.56743369 -11.74563554 7.56743369 0 0 Z " fill="#42725B" transform="translate(77,47)"/>
<path d="M0 0 C0 0.99 0 1.98 0 3 C-1.27875 3.12375 -2.5575 3.2475 -3.875 3.375 C-7.34790936 3.69042399 -7.34790936 3.69042399 -10 6 C-10.67651207 8.19704511 -10.67651207 8.19704511 -11.125 10.625 C-11.37636719 11.85089844 -11.37636719 11.85089844 -11.6328125 13.1015625 C-11.75398438 13.72804688 -11.87515625 14.35453125 -12 15 C-12.99 14.67 -13.98 14.34 -15 14 C-15.44811859 5.18700114 -15.44811859 5.18700114 -12 1 C-8.42234181 -1.590718 -3.9738621 -1.98693105 0 0 Z " fill="#42B173" transform="translate(58,5)"/>
<path d="M0 0 C1.32 0.33 2.64 0.66 4 1 C6.24707241 1.2198223 8.49771238 1.40483987 10.75 1.5625 C11.92046875 1.64628906 13.0909375 1.73007812 14.296875 1.81640625 C15.18890625 1.87699219 16.0809375 1.93757813 17 2 C16.67 2.66 16.34 3.32 16 4 C11.71 4 7.42 4 3 4 C3 8.29 3 12.58 3 17 C2.01 17 1.02 17 0 17 C0 11.39 0 5.78 0 0 Z " fill="#285F45" transform="translate(43,33)"/>
<path d="M0 0 C0.99 0 1.98 0 3 0 C2.4504991 8.42568052 -0.88024689 15.45993994 -7.1875 21.125 C-10.65207373 24 -10.65207373 24 -13 24 C-13 23.34 -13 22.68 -13 22 C-11.8357041 20.86994809 -10.67033938 19.74097929 -9.5 18.6171875 C-5.13586403 13.9121034 -1.44946981 7.90754485 1 2 C0.67 1.34 0.34 0.68 0 0 Z " fill="#75C598" transform="translate(78,26)"/>
<path d="M0 0 C0.99 0.33 1.98 0.66 3 1 C1.41037341 5.03520597 -0.28232318 9.01811282 -2 13 C-2.66 12.34 -3.32 11.68 -4 11 C-5.4807848 13.9615696 -5.35314037 16.83506295 -5.5625 20.125 C-5.64628906 21.40632813 -5.73007812 22.68765625 -5.81640625 24.0078125 C-5.90728516 25.48894531 -5.90728516 25.48894531 -6 27 C-5.01 27.33 -4.02 27.66 -3 28 C-4.32 28 -5.64 28 -7 28 C-7.54267395 18.28010664 -7.88445148 10.30955876 -2 2 C-1.34 1.34 -0.68 0.68 0 0 Z " fill="#5DBC87" transform="translate(28,10)"/>
<path d="M0 0 C1.98 0 3.96 0 6 0 C6 1.65 6 3.3 6 5 C5.34 4.67 4.68 4.34 4 4 C3.67 8.62 3.34 13.24 3 18 C2.01 18 1.02 18 0 18 C0 12.06 0 6.12 0 0 Z " fill="#175237" transform="translate(125,17)"/>
<path d="M0 0 C0 3.90801308 -1.32166057 5.05509375 -3.6875 8.125 C-7.259109 12.88925996 -10.28222988 17.70818799 -13 23 C-14.09865723 20.24348874 -14.0308518 19.09152271 -13.06640625 16.23046875 C-9.66515162 9.34844965 -6.25376474 4.50778981 0 0 Z " fill="#80A091" transform="translate(39,10)"/>
<path d="M0 0 C0.99 0 1.98 0 3 0 C3 0.99 3 1.98 3 3 C3.433125 2.505 3.86625 2.01 4.3125 1.5 C6 0 6 0 9 0 C9 2.64 9 5.28 9 8 C7.68 8 6.36 8 5 8 C5 7.34 5 6.68 5 6 C4.34 6 3.68 6 3 6 C3 6.99 3 7.98 3 9 C2.01 9 1.02 9 0 9 C0 6.03 0 3.06 0 0 Z " fill="#57816E" transform="translate(49,12)"/>
<path d="M0 0 C3 3.625 3 3.625 3 7 C3.99 6.67 4.98 6.34 6 6 C7.72795352 5.93197033 9.45835365 5.91504355 11.1875 5.9375 C12.08855469 5.94652344 12.98960938 5.95554687 13.91796875 5.96484375 C14.60503906 5.97644531 15.29210937 5.98804688 16 6 C16 6.33 16 6.66 16 7 C13.03 7 10.06 7 7 7 C7 7.99 7 8.98 7 10 C6.34 10 5.68 10 5 10 C5 10.99 5 11.98 5 13 C2.53199953 11.84826645 0.95216435 10.95216435 -1 9 C-1.99 9.66 -2.98 10.32 -4 11 C-3.71125 10.484375 -3.4225 9.96875 -3.125 9.4375 C-1.71219973 6.37643275 -0.8751483 3.25055082 0 0 Z " fill="#4CB57B" transform="translate(42,16)"/>
<path d="M0 0 C2.64 0 5.28 0 8 0 C8 0.99 8 1.98 8 3 C8.66 3 9.32 3 10 3 C10.33 2.34 10.66 1.68 11 1 C11 1.99 11 2.98 11 4 C10.01 4 9.02 4 8 4 C8 5.32 8 6.64 8 8 C7.34 8 6.68 8 6 8 C5.67 7.01 5.34 6.02 5 5 C4.34 5 3.68 5 3 5 C3 5.99 3 6.98 3 8 C2.01 8 1.02 8 0 8 C0 5.36 0 2.72 0 0 Z " fill="#38AE6E" transform="translate(98,37)"/>
<path d="M0 0 C0.33 0 0.66 0 1 0 C1 1.98 1 3.96 1 6 C1.66 6 2.32 6 3 6 C1.80086322 10.39683488 0.5711885 13.09840934 -3 16 C-4.66666667 16 -6.33333333 16 -8 16 C-7.59007813 15.43152344 -7.18015625 14.86304688 -6.7578125 14.27734375 C-3.46970786 9.56544261 -1.19781704 5.62974007 0 0 Z " fill="#628A77" transform="translate(81,33)"/>
<path d="M0 0 C2.97 0 5.94 0 9 0 C9 2.64 9 5.28 9 8 C8.34 8 7.68 8 7 8 C7 6.02 7 4.04 7 2 C6.34 2 5.68 2 5 2 C5 3.98 5 5.96 5 8 C4.34 8 3.68 8 3 8 C2.67 7.34 2.34 6.68 2 6 C1.34 6 0.68 6 0 6 C0 4.02 0 2.04 0 0 Z " fill="#38AE6E" transform="translate(152,37)"/>
<path d="M0 0 C2.33333333 0 4.66666667 0 7 0 C7.33 2.64 7.66 5.28 8 8 C7.34 8 6.68 8 6 8 C6 7.34 6 6.68 6 6 C5.34 6 4.68 6 4 6 C4 6.66 4 7.32 4 8 C2.68 8 1.36 8 0 8 C0 5.36 0 2.72 0 0 Z " fill="#41B274" transform="translate(128,37)"/>
<path d="M0 0 C2.375 -0.125 2.375 -0.125 5 0 C5.66 0.66 6.32 1.32 7 2 C6.8125 4.0625 6.8125 4.0625 6 6 C5.01 6.33 4.02 6.66 3 7 C3 7.66 3 8.32 3 9 C2.01 9 1.02 9 0 9 C0 6.03 0 3.06 0 0 Z " fill="#4CB67C" transform="translate(51,40)"/>
<path d="M0 0 C0.639375 0.165 1.27875 0.33 1.9375 0.5 C4.04582216 1.24598544 4.04582216 1.24598544 6 0 C7.2077558 3.62326739 6.54311128 4.64146369 5 8 C3.35 8 1.7 8 0 8 C-0.38063221 5.6739143 -0.71269945 3.33944736 -1 1 C-0.67 0.67 -0.34 0.34 0 0 Z " fill="#62BF8D" transform="translate(122,37)"/>
<path d="M0 0 C3.33333333 0 6.66666667 0 10 0 C10.33 1.32 10.66 2.64 11 4 C10.34 3.34 9.68 2.68 9 2 C6.89179203 2.3185177 6.89179203 2.3185177 5 3 C5.66 3.66 6.32 4.32 7 5 C4.35261084 6.4606285 3.10551666 7 0 7 C-1 6 -1 6 -1.125 3.5 C-1 1 -1 1 0 0 Z " fill="#5B8471" transform="translate(163,18)"/>
<path d="M0 0 C0.33 0 0.66 0 1 0 C0.67 5.28 0.34 10.56 0 16 C0.99 16 1.98 16 3 16 C3 16.66 3 17.32 3 18 C1.35 18 -0.3 18 -2 18 C-2.054138 15.75026553 -2.09285491 13.50015617 -2.125 11.25 C-2.14820312 9.99703125 -2.17140625 8.7440625 -2.1953125 7.453125 C-2.01537302 4.27179508 -1.68998582 2.63478104 0 0 Z " fill="#199F53" transform="translate(24,19)"/>
<path d="M0 0 C0.66 0.33 1.32 0.66 2 1 C1.52723148 5.25491665 -0.92547477 7.22542845 -4 10 C-4.99 10.495 -4.99 10.495 -6 11 C-6.66 10.34 -7.32 9.68 -8 9 C-5.89851796 5.01824456 -3.63094642 2.64960955 0 0 Z " fill="#5F8775" transform="translate(71,26)"/>
<path d="M0 0 C1.67542976 0.28604898 3.34385343 0.61781233 5 1 C5 1.66 5 2.32 5 3 C4.01 3 3.02 3 2 3 C2.33 3.66 2.66 4.32 3 5 C3.99 4.67 4.98 4.34 6 4 C6.33 5.32 6.66 6.64 7 8 C4.69 8 2.38 8 0 8 C-0.38063221 5.6739143 -0.71269945 3.33944736 -1 1 C-0.67 0.67 -0.34 0.34 0 0 Z " fill="#58BB85" transform="translate(162,37)"/>
<path d="M0 0 C1.65 0 3.3 0 5 0 C5.33 2.31 5.66 4.62 6 7 C4.35 7.33 2.7 7.66 1 8 C0.67 7.01 0.34 6.02 0 5 C-0.99 5.33 -1.98 5.66 -3 6 C-3 5.34 -3 4.68 -3 4 C-2.01 4 -1.02 4 0 4 C0 2.68 0 1.36 0 0 Z " fill="#80CBA2" transform="translate(147,37)"/>
<path d="M0 0 C0.99 0 1.98 0 3 0 C3 4.29 3 8.58 3 13 C2.01 13 1.02 13 0 13 C0 8.71 0 4.42 0 0 Z " fill="#165135" transform="translate(157,16)"/>
<path d="M0 0 C5.19453651 1.41669178 8.66182883 4.92108191 12 9 C12 9.66 12 10.32 12 11 C8.89257577 9.53181332 6.09528261 7.79975 3.25 5.875 C2.45078125 5.33617187 1.6515625 4.79734375 0.828125 4.2421875 C0.22484375 3.83226562 -0.3784375 3.42234375 -1 3 C-0.67 2.01 -0.34 1.02 0 0 Z " fill="#7AC89D" transform="translate(69,4)"/>
<path d="M0 0 C0.66 0.33 1.32 0.66 2 1 C2 1.99 2 2.98 2 4 C-1.3 4 -4.6 4 -8 4 C-8 3.01 -8 2.02 -8 1 C-5.26094655 -0.36952673 -3.02912668 -0.12621361 0 0 Z " fill="#34AB68" transform="translate(56,4)"/>
<path d="M0 0 C1.65 0.33 3.3 0.66 5 1 C5 5.62 5 10.24 5 15 C4.34 14.67 3.68 14.34 3 14 C3 10.04 3 6.08 3 2 C1.68 1.67 0.36 1.34 -1 1 C-0.67 0.67 -0.34 0.34 0 0 Z " fill="#709483" transform="translate(144,15)"/>
<path d="M0 0 C1.10176129 3.35216734 0.89303058 5.75121078 0.1875 9.1875 C0.01605469 10.06792969 -0.15539063 10.94835938 -0.33203125 11.85546875 C-0.55246094 12.56316406 -0.77289063 13.27085938 -1 14 C-1.99 14.495 -1.99 14.495 -3 15 C-4.18956883 10.84773144 -3.78960563 8.61274007 -2.0625 4.6875 C-1.68222656 3.80449219 -1.30195312 2.92148437 -0.91015625 2.01171875 C-0.60980469 1.34785156 -0.30945312 0.68398438 0 0 Z " fill="#3F7059" transform="translate(62,39)"/>
<path d="M0 0 C1.5625 1 1.5625 1 3 3 C2.81941282 5.79910132 2.53544159 8.27507944 2 11 C1.814375 11.99 1.62875 12.98 1.4375 14 C1.2209375 14.99 1.2209375 14.99 1 16 C0.67 16 0.34 16 0 16 C0 13.36 0 10.72 0 8 C-0.66 8.99 -1.32 9.98 -2 11 C-1 3.57142857 -1 3.57142857 0 0 Z " fill="#749787" transform="translate(62,33)"/>
<path d="M0 0 C1.32 0 2.64 0 4 0 C4 1.32 4 2.64 4 4 C5.98 4 7.96 4 10 4 C10 4.66 10 5.32 10 6 C3.9453125 6.1953125 3.9453125 6.1953125 2 6 C1.34 5.34 0.68 4.68 0 4 C0 2.68 0 1.36 0 0 Z " fill="#265D43" transform="translate(162,28)"/>
<path d="M0 0 C0.66 0.99 1.32 1.98 2 3 C0.02 6.63 -1.96 10.26 -4 14 C-5.14897419 9.40410325 -4.7140729 8.73828148 -2.5625 4.75 C-2.08941406 3.85796875 -1.61632812 2.9659375 -1.12890625 2.046875 C-0.75636719 1.37140625 -0.38382813 0.6959375 0 0 Z " fill="#89A699" transform="translate(30,19)"/>
<path d="M0 0 C1.5625 1.5625 1.5625 1.5625 3 4 C2.6875 7.75 2.6875 7.75 2 11 C1.01 10.34 0.02 9.68 -1 9 C-1.99 9.66 -2.98 10.32 -4 11 C-3.71125 10.484375 -3.4225 9.96875 -3.125 9.4375 C-1.71219973 6.37643275 -0.8751483 3.25055082 0 0 Z " fill="#68C08F" transform="translate(42,16)"/>
<path d="M0 0 C0.99 0.33 1.98 0.66 3 1 C3.6875 3.0625 3.6875 3.0625 4 5 C3.34 5 2.68 5 2 5 C2 8.96 2 12.92 2 17 C1.67 17 1.34 17 1 17 C0.92652344 15.75283203 0.92652344 15.75283203 0.8515625 14.48046875 C0.77679688 13.39378906 0.70203125 12.30710937 0.625 11.1875 C0.55539063 10.10855469 0.48578125 9.02960937 0.4140625 7.91796875 C0.18804267 4.81373814 0.18804267 4.81373814 -2 2 C-1.34 2 -0.68 2 0 2 C0 1.34 0 0.68 0 0 Z " fill="#71C596" transform="translate(58,6)"/>
<path d="M0 0 C0 0.66 0 1.32 0 2 C0.66 2.33 1.32 2.66 2 3 C-3.75 6 -3.75 6 -6 6 C-6 5.34 -6 4.68 -6 4 C-6.99 3.67 -7.98 3.34 -9 3 C-2.25 0 -2.25 0 0 0 Z " fill="#42B173" transform="translate(33,31)"/>
<path d="M0 0 C1.26328125 0.02707031 2.5265625 0.05414063 3.828125 0.08203125 C4.79234375 0.11683594 5.7565625 0.15164062 6.75 0.1875 C6.75 0.5175 6.75 0.8475 6.75 1.1875 C0.63019467 2.59204548 -4.96739294 3.42018915 -11.25 3.1875 C-7.67487951 -0.25219926 -4.83224625 -0.13422906 0 0 Z " fill="#159D4F" transform="translate(52.25,0.8125)"/>
<path d="M0 0 C4.29718241 1.90985885 7.6891507 4.6891507 11 8 C9.234375 8.70703125 9.234375 8.70703125 7 9 C5.078125 7.63671875 5.078125 7.63671875 3.25 5.6875 C2.63640625 5.05199219 2.0228125 4.41648437 1.390625 3.76171875 C0 2 0 2 0 0 Z " fill="#8DAA9C" transform="translate(25,45)"/>
<path d="M0 0 C0.66 0.66 1.32 1.32 2 2 C5.58343976 2.16677282 5.58343976 2.16677282 9 2 C8.67 3.65 8.34 5.3 8 7 C5.36 7 2.72 7 0 7 C0 6.67 0 6.34 0 6 C1.98 6 3.96 6 6 6 C6 5.34 6 4.68 6 4 C4.02 4 2.04 4 0 4 C0 2.68 0 1.36 0 0 Z " fill="#59836F" transform="translate(166,28)"/>
<path d="M0 0 C0.66 0.33 1.32 0.66 2 1 C2 1.99 2 2.98 2 4 C-0.22890995 5.11445498 -1.53055106 5.16480286 -4 5.1875 C-5.051875 5.20876953 -5.051875 5.20876953 -6.125 5.23046875 C-8 5 -8 5 -10 3 C-9.0925 3.061875 -8.185 3.12375 -7.25 3.1875 C-3.71017358 2.98327924 -2.55068845 2.35448165 0 0 Z " fill="#487661" transform="translate(156,30)"/>
<path d="M0 0 C0.99 0 1.98 0 3 0 C2.49202991 4.3177458 1.80317221 8.03302114 0 12 C-1.1875 10.375 -1.1875 10.375 -2 8 C-1.06553465 5.96855359 -0.06775224 3.96466413 1 2 C0.67 1.34 0.34 0.68 0 0 Z " fill="#91CEAD" transform="translate(78,26)"/>
<path d="M0 0 C1.75 1.4375 1.75 1.4375 3 3 C2.67 3.99 2.34 4.98 2 6 C1.34 5.34 0.68 4.68 0 4 C0 5.65 0 7.3 0 9 C-2.15377564 6.37801226 -3.40072174 4.35595828 -4 1 C-2.1875 0.3125 -2.1875 0.3125 0 0 Z " fill="#648B79" transform="translate(135,24)"/>
<path d="M0 0 C3.73487777 0.4979837 5.81237635 0.87491756 9 3 C7.3125 4.1875 7.3125 4.1875 5 5 C2.25 3.75 2.25 3.75 0 2 C0 1.34 0 0.68 0 0 Z " fill="#5A8470" transform="translate(34,53)"/>
<path d="M0 0 C0 3.3 0 6.6 0 10 C-0.99 10 -1.98 10 -3 10 C-3 7.03 -3 4.06 -3 1 C-1 0 -1 0 0 0 Z " fill="#527E69" transform="translate(46,40)"/>
<path d="M0 0 C0.33 0.99 0.66 1.98 1 3 C1.99 3 2.98 3 4 3 C4 3.66 4 4.32 4 5 C3.34 5 2.68 5 2 5 C2 5.66 2 6.32 2 7 C1.01 7 0.02 7 -1 7 C-1.04254356 5.00045254 -1.04080783 2.99958364 -1 1 C-0.67 0.67 -0.34 0.34 0 0 Z " fill="#29A762" transform="translate(52,42)"/>
<path d="M0 0 C0.33 0 0.66 0 1 0 C1 1.98 1 3.96 1 6 C1.66 6 2.32 6 3 6 C2.34 7.32 1.68 8.64 1 10 C0.01 9.67 -0.98 9.34 -2 9 C-1.34 6.03 -0.68 3.06 0 0 Z " fill="#6D9281" transform="translate(81,33)"/>
<path d="M0 0 C0.66 0 1.32 0 2 0 C2 1.98 2 3.96 2 6 C2.66 6 3.32 6 4 6 C4 6.66 4 7.32 4 8 C2.68 8 1.36 8 0 8 C0 5.36 0 2.72 0 0 Z " fill="#2EA966" transform="translate(174,37)"/>
<path d="M0 0 C0.99 0 1.98 0 3 0 C3 0.66 3 1.32 3 2 C4.65 2 6.3 2 8 2 C8 2.66 8 3.32 8 4 C6.02 4 4.04 4 2 4 C1.34 2.68 0.68 1.36 0 0 Z " fill="#275D44" transform="translate(46,51)"/>
<path d="M0 0 C-0.33 0.66 -0.66 1.32 -1 2 C-2.98 2 -4.96 2 -7 2 C-7.33 1.34 -7.66 0.68 -8 0 C-5.13822943 -1.43088528 -3.06624227 -0.59991697 0 0 Z " fill="#1B553A" transform="translate(173,24)"/>
<path d="M0 0 C0.66 0 1.32 0 2 0 C2.33 2.31 2.66 4.62 3 7 C2.01 7.33 1.02 7.66 0 8 C0 7.01 0 6.02 0 5 C-0.66 4.67 -1.32 4.34 -2 4 C-1.01 4 -0.02 4 1 4 C0.67 2.68 0.34 1.36 0 0 Z " fill="#5DBD89" transform="translate(108,37)"/>
<path d="M0 0 C1.67542976 0.28604898 3.34385343 0.61781233 5 1 C5 1.66 5 2.32 5 3 C3.68 3 2.36 3 1 3 C0.34 3.99 -0.32 4.98 -1 6 C-1.042721 4.33388095 -1.04063832 2.66617115 -1 1 C-0.67 0.67 -0.34 0.34 0 0 Z " fill="#68C190" transform="translate(162,37)"/>
</svg>
