<svg xmlns="http://www.w3.org/2000/svg" width="1591" height="635" viewBox="0 0 1591 635" version="1.1"><path d="M 255.596 149.077 C 244.248 155.159, 226.329 170.372, 212.453 185.704 C 180.548 220.957, 159.381 258.415, 143.628 307.500 C 138.319 324.042, 131.491 356.533, 135.012 348.500 C 135.494 347.400, 138.431 339.975, 141.537 332 C 162.351 278.574, 194.428 227.796, 248.879 162.078 C 258.453 150.522, 260.989 147, 259.735 147 C 259.590 147, 257.727 147.935, 255.596 149.077 M 351.315 160.007 C 350.114 160.491, 348.651 161.783, 348.065 162.878 C 347.375 164.168, 347 176.171, 347 196.980 L 347 229.091 349.455 231.545 C 354.987 237.078, 363.051 232.812, 364.429 223.625 C 364.827 220.973, 364.840 215.472, 364.459 211.401 L 363.765 204 378.872 204 L 393.978 204 393.370 212.750 C 392.994 218.155, 393.198 223.104, 393.905 225.696 C 396.020 233.458, 403.603 236.488, 408.545 231.545 L 411 229.091 411 196.656 C 411 160.386, 411.022 160.503, 404 159.379 C 396.170 158.127, 392.314 165.529, 393.388 179.750 L 394.012 188 378.902 188 L 363.792 188 364.468 180.250 C 365.854 164.354, 360.599 156.266, 351.315 160.007 M 1386.500 193.033 C 1377.177 194.468, 1365.093 198.562, 1358.500 202.518 C 1351.406 206.773, 1342.849 214.900, 1339.564 220.500 C 1331.845 233.662, 1332.178 255.259, 1340.286 267.254 C 1347.735 278.274, 1366.890 287.208, 1398.500 294.406 C 1416.469 298.498, 1423.803 301.564, 1427.632 306.584 C 1433.001 313.623, 1431.689 324.363, 1424.594 331.458 C 1418.154 337.899, 1410.999 340.305, 1398 340.402 C 1385.873 340.492, 1380.783 339.242, 1374.847 334.714 C 1369.230 330.429, 1365.915 323.807, 1365.252 315.546 L 1364.726 309 1346.863 309 L 1329 309 1329 315.451 C 1329 339.258, 1342.324 356.372, 1365.956 362.921 C 1377.530 366.128, 1393.042 367.339, 1405.976 366.046 C 1435.573 363.087, 1454.882 351.833, 1464.385 332 C 1467.360 325.793, 1467.500 324.936, 1467.497 313 C 1467.494 301.398, 1467.291 300.060, 1464.670 294.383 C 1457.897 279.711, 1441.967 271.151, 1404.530 262.067 C 1395.437 259.860, 1385.752 257.089, 1383.007 255.908 C 1366.278 248.711, 1365.662 228.779, 1381.914 220.543 C 1388.056 217.431, 1398.059 215.664, 1404.983 216.469 C 1420.352 218.255, 1427.380 224.134, 1428.885 236.461 L 1429.500 241.500 1446.851 241.774 L 1464.202 242.048 1463.480 235.830 C 1462.659 228.756, 1459.977 220.317, 1457.039 215.562 C 1453.580 209.966, 1444.253 201.989, 1437.738 199.053 C 1434.307 197.507, 1428.125 195.471, 1424 194.528 C 1415.201 192.517, 1395.064 191.714, 1386.500 193.033 M 782 279 L 782 363 799 363 L 816 363 816 326 L 816 289 853 289 L 890 289 890 326 L 890 363 907 363 L 924 363 924 279 L 924 195 907 195 L 890 195 890 228.500 L 890 262 853 262 L 816 262 816 228.500 L 816 195 799 195 L 782 195 782 279 M 947 279 L 947 363 964.500 363 L 982 363 982 279 L 982 195 964.500 195 L 947 195 947 279 M 1004 279 L 1004 363 1020.065 363 L 1036.130 363 1035.815 297.583 C 1035.642 261.603, 1035.572 232.241, 1035.660 232.333 C 1035.747 232.425, 1038.280 238.125, 1041.289 245 C 1044.297 251.875, 1058.599 281.238, 1073.071 310.250 L 1099.383 363 1124.192 363 L 1149 363 1149 279 L 1149 195 1131.434 195 L 1113.869 195 1114.184 259.417 C 1114.358 294.847, 1114.428 323.759, 1114.340 323.667 C 1114.251 323.575, 1111.864 317.650, 1109.035 310.500 C 1106.206 303.350, 1092.586 274.438, 1078.768 246.250 L 1053.644 195 1028.822 195 L 1004 195 1004 279 M 1172 254.053 C 1172 319.135, 1172.142 320.955, 1178.257 334 C 1188.510 355.872, 1219.822 369.583, 1251.463 366.055 C 1282.016 362.648, 1302.999 346.483, 1310.594 320.500 C 1312.158 315.151, 1312.390 308.021, 1312.738 254.750 L 1313.127 195 1295.564 195 L 1278 195 1278 252.318 C 1278 314.596, 1277.963 315.060, 1272.297 324.747 C 1268.837 330.664, 1261.792 336.565, 1255.671 338.673 C 1248.090 341.285, 1234.346 340.959, 1226.559 337.984 C 1218.773 335.008, 1212.087 328.369, 1208.893 320.441 L 1206.500 314.500 1206.220 254.750 L 1205.940 195 1188.970 195 L 1172 195 1172 254.053 M 620 261.938 C 592.982 268.073, 572.015 276.274, 549.500 289.512 C 511.637 311.774, 477.007 347.739, 460.443 382 C 451.104 401.319, 444.048 425.793, 439.526 454.557 C 433.988 489.784, 430.913 501.187, 424.117 511.693 C 413.958 527.396, 394.910 537.159, 374.500 537.123 C 359.776 537.096, 346.216 531.221, 334.990 520.004 C 326.489 511.510, 322.086 504.023, 319.088 492.965 C 316.514 483.473, 316.532 483.952, 316.786 430.643 C 316.988 388.380, 317.101 385.825, 318.750 386.464 C 333.132 392.035, 353.332 395.108, 375.483 395.096 C 401.529 395.081, 419.169 392.079, 436.729 384.673 C 450.335 378.935, 456.648 372.767, 457.660 364.225 C 458.362 358.293, 455.761 352.495, 450.513 348.295 C 446.595 345.158, 432.843 337.823, 432.161 338.505 C 431.918 338.748, 433.358 340.760, 435.360 342.976 C 438.289 346.218, 439 347.800, 439 351.070 C 439 355.730, 435.710 360.780, 430.626 363.922 C 424.850 367.492, 407.645 372.860, 396.500 374.570 C 369.989 378.638, 335.473 373.527, 320.798 363.361 C 311.534 356.944, 310.309 347.678, 317.878 341.286 C 322.728 337.191, 317.837 338.851, 308.317 344.532 C 301.119 348.827, 298.485 351.023, 296.532 354.355 L 294.017 358.646 293.924 423.073 C 293.844 478.037, 294.060 488.561, 295.395 494.721 C 302.272 526.448, 326.601 551.029, 358.500 558.480 C 369.245 560.989, 384.418 560.657, 396.105 557.656 C 406.952 554.870, 410.505 553.230, 422.234 545.595 C 445.643 530.357, 454.986 510.556, 461.443 462.500 C 464.314 441.128, 466.312 432.199, 472.555 412.829 C 476.875 399.425, 481.273 389.948, 488.440 378.593 C 515.400 335.879, 562.316 301.586, 613.718 287.020 C 619.888 285.271, 625.733 283.994, 626.707 284.182 C 628.855 284.596, 629.458 288.215, 631.042 310.191 C 632.730 333.622, 630.627 358.783, 624.998 382.500 C 617.706 413.218, 606.601 438.825, 588.566 466.505 C 570.923 493.584, 545.859 518.593, 517.500 537.415 C 500.378 548.779, 492.309 553.179, 475.485 560.324 C 430.216 579.548, 382.300 585.061, 331.126 576.932 C 263.706 566.223, 203.537 534.694, 152.882 483.530 C 145.564 476.138, 139.410 470.256, 139.207 470.460 C 138.040 471.627, 152.625 492.344, 163.525 505 C 187.154 532.438, 212.689 553.173, 243.500 569.941 C 278.443 588.958, 314.635 599.476, 357.397 603.042 C 405.501 607.052, 459.371 595.667, 505 571.847 C 584.908 530.131, 638.400 454.654, 651.596 365 C 656.246 333.414, 654.855 292.305, 648.230 265.500 L 646.500 258.500 641.500 258.346 C 638.750 258.261, 629.075 259.878, 620 261.938 M 355 329.376 C 344.142 331.501, 336.924 333.987, 331.450 337.489 C 324.794 341.747, 323 344.372, 323 349.854 C 323 353.578, 323.532 354.765, 326.417 357.486 C 329.796 360.674, 338.001 365.333, 338.809 364.524 C 339.040 364.294, 338.277 362.896, 337.114 361.418 C 329.986 352.356, 342.960 343.554, 367 341.142 C 387.669 339.068, 410.025 344.284, 415.358 352.424 C 417.528 355.736, 417.429 357.589, 414.891 361.153 C 413.731 362.782, 413.021 364.354, 413.312 364.646 C 413.961 365.295, 422.662 360.415, 425.721 357.687 C 429.222 354.564, 430.378 349.841, 428.653 345.711 C 426.358 340.218, 421.124 336.872, 408.255 332.668 C 396.747 328.909, 396.132 328.821, 379 328.467 C 367.477 328.228, 359.280 328.539, 355 329.376" stroke="none" fill="#1c543b" fill-rule="evenodd"/><path d="M 353.500 47.097 C 305.769 51.483, 261.687 66.767, 223.059 92.325 C 204.417 104.659, 192.730 114.228, 177.664 129.494 C 137.817 169.869, 111.159 221.559, 101.590 277 C 95.666 311.326, 95.998 343.358, 102.642 378.376 L 105.274 392.251 112.802 391.569 C 130.500 389.965, 145.379 385.918, 170 376.010 C 209.561 360.090, 242.768 335.826, 268.567 303.988 C 292.786 274.101, 303.846 246.713, 312.523 195.144 C 317.989 162.662, 320.026 153.964, 324.342 144.682 C 328.602 135.520, 334.755 128.759, 344.369 122.675 C 355.256 115.786, 361.559 113.746, 373.560 113.224 C 388.663 112.568, 400.851 116.558, 413.198 126.198 C 421.673 132.816, 430.657 146.748, 433.508 157.693 C 435.641 165.882, 435.752 264.503, 433.628 263.687 C 409.907 254.585, 370.392 251.913, 341.521 257.459 C 312.986 262.940, 294.044 274.607, 293.810 286.847 C 293.660 294.680, 300.391 302.688, 311.643 308.065 C 319.865 311.993, 320.925 311.766, 316.616 306.997 C 313.609 303.668, 313 302.249, 313 298.568 C 313 294.941, 313.586 293.528, 316.250 290.735 C 328.853 277.523, 364.948 270.752, 397.500 275.493 C 409.211 277.199, 412.422 278.050, 421.912 281.964 C 430.802 285.630, 435.580 289.256, 438.145 294.285 C 440.486 298.874, 440.054 301.910, 436.371 306.750 C 433.618 310.368, 434.323 310.728, 439.737 308.465 C 445.741 305.957, 453.842 299.229, 456.035 294.931 C 458.037 291.008, 458.081 289.495, 458.022 227.665 C 457.989 192.876, 457.552 161.957, 457.051 158.956 C 454.641 144.530, 449.139 132.076, 440.230 120.880 C 430.695 108.899, 421.357 101.833, 407.350 96.002 C 372.210 81.373, 329.716 93.719, 309.096 124.548 C 301.458 135.968, 296.226 151.443, 293.054 172 C 292.418 176.125, 291.240 183.775, 290.437 189 C 285.725 219.655, 281.200 236.654, 273.031 254.382 C 259.244 284.304, 229.645 316.271, 196.500 337.033 C 183.534 345.156, 163.126 355.060, 150.500 359.358 C 138.747 363.359, 125.298 366.631, 124.380 365.713 C 123.128 364.461, 121.246 349.337, 120.559 335 C 118.766 297.624, 126.772 256.887, 143.256 219.500 C 158.383 185.192, 185.005 150.652, 214.500 127.067 C 251.152 97.759, 289.125 80.798, 337 72.352 C 352.002 69.706, 400.226 69.674, 417 72.300 C 490.778 83.850, 554.400 118.094, 607.267 174.710 C 610.970 178.676, 614 181.413, 614 180.792 C 614 179.042, 600.549 159.557, 592.099 149.067 C 577.833 131.356, 556.708 111.546, 537.500 97.865 C 529.838 92.408, 501.633 76.204, 492.049 71.754 C 450.260 52.348, 397.855 43.022, 353.500 47.097 M 613.410 303.607 C 608.510 318.172, 594.226 351.001, 586.264 366 C 573.748 389.576, 554.244 420.234, 538.612 440.904 C 534.700 446.077, 530.600 451.549, 529.500 453.065 C 523.266 461.656, 507.285 481.495, 494.750 496.206 C 488.744 503.254, 486.983 506, 488.469 506 C 489.452 506, 504.761 495.690, 510.449 491.198 C 529.855 475.872, 553.564 448.378, 571.415 420.500 C 587.850 394.833, 605.413 349.569, 613.050 313.191 C 614.241 307.521, 614.952 302.619, 614.631 302.298 C 614.310 301.977, 613.760 302.566, 613.410 303.607 M 1123.239 394.335 C 1117.840 396.293, 1113.333 400.620, 1110.336 406.724 C 1107.663 412.168, 1107.500 413.246, 1107.500 425.500 C 1107.500 437.644, 1107.684 438.893, 1110.297 444.473 C 1113.695 451.730, 1115.325 453.613, 1120.497 456.253 C 1125.766 458.942, 1136.067 459.102, 1141 456.572 C 1146.818 453.587, 1150.937 448.950, 1152.527 443.596 C 1153.337 440.868, 1154 438.269, 1154 437.818 C 1154 437.368, 1151.125 437, 1147.611 437 L 1141.223 437 1140.596 440.340 C 1139.672 445.267, 1135.774 448.486, 1130.889 448.358 C 1122.445 448.137, 1118.479 439.573, 1119.199 423.113 C 1119.520 415.751, 1120.132 412.513, 1121.813 409.283 C 1124.407 404.298, 1126.479 403, 1131.845 403 C 1135.058 403, 1136.319 403.591, 1138.411 406.077 C 1139.835 407.769, 1141 410.244, 1141 411.577 C 1141 413.872, 1141.317 414, 1147 414 C 1152.884 414, 1153 413.947, 1152.978 411.250 C 1152.949 407.606, 1149.852 401.041, 1146.868 398.298 C 1141.475 393.340, 1130.881 391.563, 1123.239 394.335 M 1339.500 394.490 C 1327.321 398.760, 1320.466 417.474, 1324.364 435.812 C 1327.182 449.070, 1333.043 456.112, 1342.798 457.962 C 1356.258 460.514, 1369.885 451.384, 1369.978 439.750 C 1370 437.053, 1369.884 437, 1364 437 C 1359.248 437, 1358 437.322, 1358 438.550 C 1358 439.402, 1357.295 441.462, 1356.434 443.128 C 1352.750 450.252, 1342.239 450.058, 1338.692 442.800 C 1335.770 436.822, 1334.599 426.654, 1335.915 418.687 C 1337.807 407.226, 1341.135 403, 1348.268 403 C 1352.805 403, 1356.715 406.325, 1357.645 410.974 C 1358.238 413.938, 1358.374 414, 1364.236 414 L 1370.223 414 1369.528 410.250 C 1367.979 401.879, 1363.628 396.658, 1356.101 394.138 C 1351.561 392.618, 1344.408 392.770, 1339.500 394.490 M 779 425.404 L 779 457 784.500 457 L 790 457 790 445 L 790 433 795.557 433 C 812.018 433, 820.191 424.972, 818.686 410.282 C 818 403.589, 815.702 399.774, 810.590 396.844 C 806.953 394.760, 804.977 394.462, 792.750 394.154 L 779 393.808 779 425.404 M 826 425.500 L 826 457 831.500 457 L 837 457 837 443.500 L 837 430 848 430 L 859 430 859 443.500 L 859 457 865.014 457 L 871.028 457 870.764 425.750 L 870.500 394.500 864.750 394.200 L 859 393.900 859 406.450 L 859 419 848 419 L 837 419 837 406.500 L 837 394 831.500 394 L 826 394 826 425.500 M 890.156 410.250 C 887.302 419.188, 882.774 433.363, 880.093 441.750 L 875.220 457 880.986 457 L 886.752 457 888.622 450.470 L 890.492 443.941 901.941 444.220 L 913.390 444.500 915.388 450.750 L 917.385 457 923.300 457 C 927.590 457, 929.098 456.657, 928.791 455.750 C 928.559 455.063, 924.126 440.887, 918.941 424.250 L 909.513 394 902.429 394 L 895.344 394 890.156 410.250 M 934 425.408 L 934 457 939.500 457 L 945 457 945 444.500 L 945 432 951.878 432 C 956.705 432, 959.118 432.438, 959.974 433.468 C 960.644 434.276, 961.627 438.438, 962.159 442.718 C 962.690 446.998, 963.343 451.962, 963.608 453.750 L 964.091 457 970.152 457 C 975.517 457, 976.136 456.799, 975.535 455.250 C 975.162 454.288, 974.418 449.450, 973.882 444.500 C 972.657 433.181, 971.440 429.334, 968.466 427.386 L 966.110 425.842 969.494 422.871 C 973.611 419.256, 975.402 414.259, 974.727 408.267 C 974.136 403.031, 971.657 399.304, 966.895 396.500 C 964.005 394.797, 961.308 394.449, 948.750 394.158 L 934 393.817 934 425.408 M 984.667 394.667 C 984.300 395.033, 984 409.208, 984 426.167 L 984 457 989.482 457 L 994.963 457 995.232 433.750 L 995.500 410.500 1001.916 433.750 L 1008.333 457 1013.972 457 L 1019.611 457 1026.731 432.250 L 1033.850 407.500 1033.925 432.250 L 1034 457 1039.500 457 L 1045 457 1045 425.500 L 1045 394 1036.250 394.001 L 1027.500 394.002 1021.548 415.067 C 1018.275 426.652, 1015.317 436.304, 1014.976 436.515 C 1014.634 436.726, 1011.698 427.247, 1008.451 415.450 L 1002.548 394 993.941 394 C 989.207 394, 985.033 394.300, 984.667 394.667 M 1060.999 422.207 C 1055.987 437.768, 1051.462 451.805, 1050.943 453.399 C 1050.424 454.994, 1050 456.479, 1050 456.699 C 1050 456.920, 1052.576 456.965, 1055.725 456.800 L 1061.449 456.500 1063.311 450.250 L 1065.174 444 1076.551 444 L 1087.928 444 1089.765 450.250 L 1091.602 456.500 1097.734 456.796 L 1103.866 457.092 1101.441 449.296 C 1100.107 445.008, 1095.706 430.925, 1091.661 418 L 1084.307 394.500 1077.210 394.207 L 1070.113 393.915 1060.999 422.207 M 1161 425.500 L 1161 457 1179 457 L 1197 457 1197 452 L 1197 447 1184 447 L 1171 447 1171 438.500 L 1171 430 1182.500 430 L 1194 430 1194 425 L 1194 420 1182.500 420 L 1171 420 1171 412 L 1171 404 1183.500 404 L 1196 404 1196 399 L 1196 394 1178.500 394 L 1161 394 1161 425.500 M 1204.193 418.250 C 1204.615 445.531, 1204.935 447.010, 1211.731 453.142 C 1220.575 461.122, 1235.692 460.096, 1243.350 450.996 C 1248.103 445.347, 1249 439.765, 1249 415.818 L 1249 394 1243.582 394 L 1238.164 394 1237.830 416.750 C 1237.545 436.150, 1237.237 439.974, 1235.738 442.720 C 1233.586 446.661, 1231.243 448, 1226.500 448 C 1221.752 448, 1219.408 446.658, 1217.281 442.720 C 1215.809 439.996, 1215.485 435.996, 1215.175 416.750 L 1214.810 394 1209.314 394 L 1203.818 394 1204.193 418.250 M 1253.198 399.250 L 1253.500 404.500 1261.750 404.790 L 1270 405.081 1270 431.040 L 1270 457 1276 457 L 1282 457 1282 431 L 1282 405 1290.500 405 L 1299 405 1299 399.500 L 1299 394 1275.948 394 L 1252.895 394 1253.198 399.250 M 1304 425.500 L 1304 457 1309.500 457 L 1315 457 1315 425.500 L 1315 394 1309.500 394 L 1304 394 1304 425.500 M 1382.999 422.207 C 1377.987 437.768, 1373.462 451.805, 1372.943 453.399 C 1372.424 454.994, 1372 456.479, 1372 456.699 C 1372 456.920, 1374.576 456.965, 1377.725 456.800 L 1383.449 456.500 1385.311 450.250 L 1387.174 444 1398.551 444 L 1409.928 444 1411.765 450.250 L 1413.602 456.500 1419.722 456.796 L 1425.842 457.091 1422.316 445.796 C 1420.376 439.583, 1415.961 425.500, 1412.505 414.500 L 1406.222 394.500 1399.168 394.207 L 1392.113 393.915 1382.999 422.207 M 1430.667 394.667 C 1430.300 395.033, 1430 409.208, 1430 426.167 L 1430 457 1447.500 457 L 1465 457 1465 452 L 1465 447 1453.500 447 L 1442 447 1442 420.500 L 1442 394 1436.667 394 C 1433.733 394, 1431.033 394.300, 1430.667 394.667 M 790 413.639 L 790 423.278 796.094 422.725 C 803.855 422.021, 807 419.436, 807 413.760 C 807 411.620, 806.559 409.045, 806.021 408.039 C 804.764 405.691, 799.880 404, 794.351 404 L 790 404 790 413.639 M 945 412.387 L 945 421 951.545 421 C 957.162 421, 958.439 420.652, 960.545 418.545 C 963.555 415.536, 963.817 410.231, 961.120 406.900 C 959.546 404.956, 958.086 404.514, 952.120 404.177 L 945 403.774 945 412.387 M 1073.208 416.746 C 1071.399 423.211, 1069.659 429.512, 1069.343 430.750 C 1068.781 432.944, 1068.966 433, 1076.768 433 L 1084.769 433 1080.868 419.750 C 1078.723 412.462, 1076.861 406.161, 1076.732 405.746 C 1076.603 405.331, 1075.017 410.281, 1073.208 416.746 M 1395.208 416.746 C 1393.399 423.211, 1391.659 429.512, 1391.343 430.750 C 1390.781 432.944, 1390.966 433, 1398.768 433 L 1406.769 433 1402.868 419.750 C 1400.723 412.462, 1398.861 406.161, 1398.732 405.746 C 1398.603 405.331, 1397.017 410.281, 1395.208 416.746 M 898.090 418.635 C 896.299 425.034, 894.598 430.884, 894.310 431.635 C 893.893 432.720, 895.471 433, 902 433 C 908.144 433, 910.101 432.685, 909.765 431.750 C 909.518 431.063, 907.805 425.212, 905.957 418.750 C 904.110 412.288, 902.317 407, 901.973 407 C 901.628 407, 899.881 412.236, 898.090 418.635 M 364.500 426.149 C 360.098 428.802, 360.065 429.076, 360.032 462.795 L 360 495.091 362.455 497.545 C 365.633 500.724, 370.027 500.740, 373.694 497.588 C 376.340 495.313, 376.519 494.639, 376.840 485.791 L 377.179 476.407 387.653 475.306 C 401.532 473.847, 406.384 471.436, 410.221 464.091 C 412.562 459.610, 412.997 457.568, 412.978 451.136 C 412.945 439.571, 408.971 432.653, 399.513 427.695 C 396.080 425.896, 393.403 425.544, 381 425.268 C 370.937 425.043, 365.888 425.313, 364.500 426.149 M 377 450.500 L 377 460 382.550 460 C 389.656 460, 393.510 458.014, 394.966 453.603 C 395.871 450.862, 395.796 449.449, 394.598 446.579 C 392.815 442.312, 389.954 441, 382.435 441 L 377 441 377 450.500" stroke="none" fill="#049b44" fill-rule="evenodd"/></svg>